<svg id="bbbe24c7-8982-44d4-ba6f-a4302c862759" data-name="Calque 4" xmlns="http://www.w3.org/2000/svg" viewBox="0 0 51.17 59.7"><defs><style>.aa6edb3a-d03f-44ce-acae-d3e792debffa{fill:#fff;}</style></defs><title>Objet dynamique vectoriel1</title><path class="aa6edb3a-d03f-44ce-acae-d3e792debffa" d="M26.16,33.8H21.28V29a1.45,1.45,0,0,0-2.89,0V33.8H13.54a1.45,1.45,0,0,0-1.45,1.45v.18a1.45,1.45,0,0,0,1.45,1.45h4.85v4.81a1.45,1.45,0,1,0,2.89,0V36.88h4.88a1.45,1.45,0,0,0,1.45-1.45v-.18A1.45,1.45,0,0,0,26.16,33.8Z"/><path class="aa6edb3a-d03f-44ce-acae-d3e792debffa" d="M37.67,11.5H2a2,2,0,0,0-2,2V57.7a2,2,0,0,0,2,2H37.67a2,2,0,0,0,2-2V13.5A2,2,0,0,0,37.67,11.5Zm-2,36.7v7.5H4V15.5H35.67V48.2Z"/><path class="aa6edb3a-d03f-44ce-acae-d3e792debffa" d="M49.17,0H13.5a2,2,0,0,0-2,2V8.5h4V4H47.17V44.2h-4.5v4h6.5a2,2,0,0,0,2-2V2A2,2,0,0,0,49.17,0Z"/></svg>